<?xml version="1.0" encoding="UTF-8"?>
<svg width="1200pt" height="1200pt" version="1.1" viewBox="0 0 1200 1200" xmlns="http://www.w3.org/2000/svg">
 <g>
  <path d="m268.36 637.69v-121.92c0-28.453 15-53.672 37.594-67.781-14.344-11.719-24.562-28.031-28.266-46.5-38.25 23.672-63.656 66.047-63.656 114.28v121.92c8.9062-0.89062 18.047-1.3125 27.141-1.3125 9.1406 0 18.234 0.42188 27.141 1.3125z"/>
  <path d="m931.78 515.76v121.92c8.9062-0.89062 18.047-1.3125 27.141-1.3125 9.1406 0 18.234 0.42188 27.141 1.3125v-121.92c0-48.234-25.641-90.609-63.891-114.28-3.7031 18.469-13.922 34.781-28.031 46.5 22.594 14.109 37.594 39.328 37.594 67.781z"/>
  <path d="m958.87 690.71c-116.39 0-211.08 94.688-211.08 211.08s94.688 211.08 211.08 211.08c116.39 0 211.13-94.688 211.13-211.08s-94.688-211.08-211.13-211.08zm112.17 178.87-110.91 123.74c-6.375 7.125-15.516 11.203-25.031 11.203-9.5625 0-18.656-4.0781-25.031-11.203l-63.281-70.594c-12.375-13.828-11.203-35.109 2.5781-47.484 6.7031-6 15.328-9 24.281-8.5312s17.203 4.4531 23.203 11.109l38.25 42.656 85.875-95.812c12.375-13.828 33.703-14.953 47.484-2.5781 13.828 12.375 14.953 33.703 2.5781 47.484z"/>
  <path d="m241.08 690.71c-116.39 0-211.08 94.688-211.08 211.13 0 116.39 94.688 211.08 211.08 211.08s211.13-94.688 211.13-211.08c0-116.39-94.688-211.13-211.13-211.13zm94.312 305.39c-6.375 6.375-14.812 9.8438-23.766 9.8438-9 0-17.438-3.5156-23.766-9.8438l-46.734-46.734-46.734 46.734c-6.3281 6.375-14.812 9.8438-23.766 9.8438-9 0-17.438-3.5156-23.766-9.8438-6.375-6.3281-9.8438-14.812-9.8438-23.766 0-9 3.5156-17.438 9.8438-23.766l46.734-46.734-46.734-46.734c-13.125-13.125-13.125-34.453 0-47.578s34.453-13.125 47.578 0l46.734 46.734 46.734-46.734c13.125-13.125 34.453-13.125 47.578 0s13.125 34.453 0 47.578l-46.734 46.734 46.734 46.734c6.3281 6.3281 9.8438 14.812 9.8438 23.766 0 9-3.5156 17.438-9.8438 23.766z"/>
  <path d="m770.48 567.71 40.359-40.359c9.375-9.375 10.453-24.188 2.5312-34.828l-29.719-39.844c6.1875-14.906 7.8281-18.891 14.016-33.797l49.172-7.1719c13.125-1.875 22.875-13.125 22.875-26.391v-57.094c0-13.266-9.75-24.516-22.875-26.391l-49.172-7.125c-6.1875-14.906-7.8281-18.891-14.016-33.797l29.719-39.797c7.9219-10.641 6.8438-25.453-2.5312-34.828l-40.359-40.312c-9.375-9.375-24.188-10.453-34.828-2.5312l-39.844 29.719c-14.906-6.1875-18.891-7.8281-33.797-13.969l-7.125-49.172c-1.9219-13.125-13.125-22.828-26.391-22.828h-57.047c-13.266 0-24.516 9.75-26.391 22.828l-7.125 49.172c-14.906 6.1875-18.891 7.8281-33.797 13.969l-39.797-29.719c-10.641-7.9219-25.453-6.8438-34.828 2.5312l-40.312 40.312c-9.375 9.375-10.453 24.234-2.5312 34.828l29.812 39.938c-6.1406 14.812-7.8281 18.797-13.969 33.656l-49.312 7.1719c-13.125 1.9219-22.828 13.125-22.828 26.391v57.094c0 13.219 9.75 24.469 22.828 26.391l49.172 7.1719c6.1875 14.906 7.8281 18.891 14.016 33.797l-29.719 39.797c-7.9219 10.641-6.8438 25.453 2.5312 34.828l40.312 40.359c9.375 9.3281 24.188 10.406 34.828 2.5312l39.797-29.719c14.906 6.1875 18.891 7.8281 33.797 13.969l7.125 49.172c1.9219 13.125 13.172 22.875 26.391 22.875h57.047c13.266 0 24.469-9.7031 26.391-22.875l7.125-49.172c14.906-6.1406 18.891-7.7812 33.797-13.969l39.844 29.719c10.641 7.9219 25.453 6.8438 34.828-2.5312zm-170.48-110.11c-55.688 0-100.78-45.094-100.78-100.78s45.141-100.78 100.78-100.78c55.688 0 100.78 45.094 100.78 100.78s-45.141 100.78-100.78 100.78z"/>
 </g>
</svg>
